<?xml version="1.0" encoding="utf-8"?>
<!-- Generator: Adobe Illustrator 21.0.2, SVG Export Plug-In . SVG Version: 6.00 Build 0)  -->
<svg version="1.1" xmlns="http://www.w3.org/2000/svg" xmlns:xlink="http://www.w3.org/1999/xlink" x="0px" y="0px"
	 width="1571px" height="216.8px" viewBox="0 0 1571 216.8" style="enable-background:new 0 0 1571 216.8;" xml:space="preserve">
<style type="text/css">
	.st0{fill:none;stroke:#AEAEAE;stroke-width:2;stroke-miterlimit:10;}
	.st1{fill:none;stroke:#AEAEAE;stroke-width:2;stroke-miterlimit:10;stroke-dasharray:12.0505,12.0509;}
</style>
<g>
	<g>
		<path class="st0" d="M1.8,40.5c0,0,1.2,1.7,3.7,4.8"/>
		<path class="st1" d="M13.2,54.5c12.3,14.3,35.4,38.8,72,69.7c42,39.1,80.2-1.1,105.4,2.4c25.3,3.6,36.9,15.4,47.6,23.3
			c10.7,7.9,43.7,26.2,78.7,16c35-10.1,47.7-17.5,70.7-17.8s39.3,5.7,53.7-2.7c14.3-8.3,24-29.9,40.5-33.8c16.5-3.9,25.3-3.1,40,0
			c14.8,3.1,46.1,6.6,58.5-1.3c12.3-7.9,15.7-23.6,23.3-31.4c7.7-7.8,26.3-14.6,31.3-20.2c5-5.6,12.3-29.3,21.5-38
			c9.2-8.7,16.9-20.3,36.9-19c20,1.3,28,1,47.3,24.7c19.3,23.7,46.4,24.6,57.7,32.3c11.3,7.7,17,8.5,30,31.6
			c13,23.1,15,33.7,30.3,41.6c15.3,7.9,22.3,4.5,37.7,19.5c15.3,15,40.7,9.4,52.3,11.4c11.7,2,23.3,3.3,36,16
			c12.7,12.7,22,30.3,48.7,33.2c26.7,2.8,31,2.6,38.7-2.4c7.7-5.1,17.7-12.7,30.3-11.1c12.7,1.7,34.8-19,44.6-30.7
			c9.8-11.7,23.4-24.9,42.4-27.3c19-2.4,40.7-7.1,77-2.7c36.3,4.3,56.8-8.6,65.6-17.1c8.8-8.5,25.1-22.9,45.8-23.5s41.8,2,56.7-10.7
			c14.9-12.7,16.9-18,26.3-28.3s17.7-21.2,30.9-26.4c11.4-4.6,45.6-11.7,68.5,1.4"/>
		<path class="st0" d="M1564.9,36.6c1.6,1.2,3.1,2.6,4.5,4.1"/>
	</g>
</g>
</svg>
